<svg width="137" height="60" viewBox="0 0 137 60" fill="none" xmlns="http://www.w3.org/2000/svg">
<rect x="109.215" width="38" height="45.6833" transform="rotate(43.6205 109.215 0)" fill="#0094CC"/>
<rect x="26.2153" width="45.1133" height="38" transform="rotate(43.6205 26.2153 0)" fill="#0094CC"/>
<rect x="69.2153" y="1" width="38" height="38" transform="rotate(43.6205 69.2153 1)" fill="#0094CC"/>
<path d="M21.7373 38.3076C19.6182 38.3076 17.8115 37.8682 16.3174 36.9893C14.8232 36.1104 13.6758 34.8896 12.875 33.3271C12.084 31.7646 11.6885 29.9531 11.6885 27.8926V27.1602C11.6885 25.0312 12.084 23.1562 12.875 21.5352C13.666 19.9141 14.7842 18.6494 16.2295 17.7412C17.6846 16.8232 19.4033 16.3643 21.3857 16.3643C22.9092 16.3643 24.3447 16.5742 25.6924 16.9941C27.0498 17.4141 28.2266 18.0439 29.2227 18.8838V23.6152H26.0586L25.458 20.7588C25.0674 20.4268 24.5498 20.1631 23.9053 19.9678C23.2705 19.7627 22.5381 19.6602 21.708 19.6602C20.5068 19.6602 19.4766 19.9727 18.6172 20.5977C17.7578 21.2227 17.0986 22.0967 16.6396 23.2197C16.1807 24.3428 15.9512 25.6465 15.9512 27.1309V27.8926C15.9512 30.0605 16.459 31.7939 17.4746 33.0928C18.4902 34.3818 19.9551 35.0264 21.8691 35.0264C22.6211 35.0264 23.3096 34.9531 23.9346 34.8066C24.5693 34.6602 25.0918 34.4893 25.502 34.2939V30.6758L22.4551 30.4414V27.4385H29.7939V36.0664C28.8467 36.7402 27.7041 37.2822 26.3662 37.6924C25.0283 38.1025 23.4854 38.3076 21.7373 38.3076ZM31.9473 38V35.4365L34.2178 34.9971V19.6895L31.9473 19.25V16.6719H48.5V22.4287H45.2188L45.0283 19.9678H38.4951V25.3291H45.7168V28.625H38.4951V34.7188H45.3799L45.5703 32.1699H48.8223V38H31.9473ZM59.8086 38.3076C58.2363 38.3076 56.8057 38.1318 55.5166 37.7803C54.2275 37.4287 52.958 36.8184 51.708 35.9492V30.793H55.0186L55.4727 33.8252C55.9023 34.1963 56.5029 34.499 57.2744 34.7334C58.0557 34.958 58.9004 35.0703 59.8086 35.0703C60.9707 35.0703 61.8594 34.8359 62.4746 34.3672C63.0898 33.8887 63.3975 33.2441 63.3975 32.4336C63.3975 31.6719 63.1045 31.0322 62.5186 30.5146C61.9424 29.9873 60.9268 29.499 59.4717 29.0498C56.9424 28.3174 55.0576 27.4482 53.8174 26.4424C52.5771 25.4365 51.957 24.0596 51.957 22.3115C51.957 21.1592 52.2744 20.1436 52.9092 19.2646C53.5537 18.376 54.4424 17.6777 55.5752 17.1699C56.708 16.6621 58.0166 16.3984 59.501 16.3789C61.1416 16.3594 62.5918 16.5547 63.8516 16.9648C65.1211 17.375 66.2148 17.9463 67.1328 18.6787V23.4834H63.9248L63.3682 20.5537C62.9971 20.3193 62.4941 20.1143 61.8594 19.9385C61.2344 19.7627 60.5215 19.6748 59.7207 19.6748C58.6953 19.6748 57.8555 19.9043 57.2012 20.3633C56.5469 20.8223 56.2197 21.4668 56.2197 22.2969C56.2197 23.0098 56.5225 23.6055 57.1279 24.084C57.7432 24.5527 58.8711 25.0508 60.5117 25.5781C62.8652 26.2324 64.6475 27.0967 65.8584 28.1709C67.0791 29.2451 67.6895 30.6562 67.6895 32.4043C67.6895 33.625 67.3623 34.6748 66.708 35.5537C66.0537 36.4326 65.1309 37.1113 63.9395 37.5898C62.7578 38.0684 61.3809 38.3076 59.8086 38.3076ZM78.0898 38.3076C76.5176 38.3076 75.0869 38.1318 73.7979 37.7803C72.5088 37.4287 71.2393 36.8184 69.9893 35.9492V30.793H73.2998L73.7539 33.8252C74.1836 34.1963 74.7842 34.499 75.5557 34.7334C76.3369 34.958 77.1816 35.0703 78.0898 35.0703C79.252 35.0703 80.1406 34.8359 80.7559 34.3672C81.3711 33.8887 81.6787 33.2441 81.6787 32.4336C81.6787 31.6719 81.3857 31.0322 80.7998 30.5146C80.2236 29.9873 79.208 29.499 77.7529 29.0498C75.2236 28.3174 73.3389 27.4482 72.0986 26.4424C70.8584 25.4365 70.2383 24.0596 70.2383 22.3115C70.2383 21.1592 70.5557 20.1436 71.1904 19.2646C71.835 18.376 72.7236 17.6777 73.8564 17.1699C74.9893 16.6621 76.2979 16.3984 77.7822 16.3789C79.4229 16.3594 80.873 16.5547 82.1328 16.9648C83.4023 17.375 84.4961 17.9463 85.4141 18.6787V23.4834H82.2061L81.6494 20.5537C81.2783 20.3193 80.7754 20.1143 80.1406 19.9385C79.5156 19.7627 78.8027 19.6748 78.002 19.6748C76.9766 19.6748 76.1367 19.9043 75.4824 20.3633C74.8281 20.8223 74.501 21.4668 74.501 22.2969C74.501 23.0098 74.8037 23.6055 75.4092 24.084C76.0244 24.5527 77.1523 25.0508 78.793 25.5781C81.1465 26.2324 82.9287 27.0967 84.1396 28.1709C85.3604 29.2451 85.9707 30.6562 85.9707 32.4043C85.9707 33.625 85.6436 34.6748 84.9893 35.5537C84.335 36.4326 83.4121 37.1113 82.2207 37.5898C81.0391 38.0684 79.6621 38.3076 78.0898 38.3076ZM97.4404 38.3076C95.5166 38.3076 93.832 37.8438 92.3867 36.916C90.9414 35.9785 89.8135 34.6943 89.0029 33.0635C88.2021 31.4326 87.8018 29.5771 87.8018 27.4971V27.1748C87.8018 25.1045 88.2021 23.2539 89.0029 21.623C89.8135 19.9922 90.9365 18.708 92.3721 17.7705C93.8174 16.833 95.502 16.3643 97.4258 16.3643C99.3496 16.3643 101.039 16.833 102.494 17.7705C103.959 18.708 105.097 19.9922 105.907 21.623C106.728 23.2539 107.138 25.1045 107.138 27.1748V27.4971C107.138 29.5771 106.732 31.4326 105.922 33.0635C105.111 34.6943 103.974 35.9785 102.509 36.916C101.054 37.8438 99.3643 38.3076 97.4404 38.3076ZM97.4404 34.9824C99.2471 34.9824 100.604 34.2988 101.513 32.9316C102.421 31.5547 102.875 29.7432 102.875 27.4971V27.1455C102.875 25.6709 102.67 24.377 102.26 23.2637C101.85 22.1406 101.239 21.2666 100.429 20.6416C99.6279 20.0166 98.627 19.7041 97.4258 19.7041C95.6289 19.7041 94.2861 20.3877 93.3975 21.7549C92.5186 23.1221 92.0791 24.9189 92.0791 27.1455V27.4971C92.0791 29.7432 92.5234 31.5547 93.4121 32.9316C94.3105 34.2988 95.6533 34.9824 97.4404 34.9824ZM117.553 38.3076C115.98 38.3076 114.55 38.1318 113.261 37.7803C111.972 37.4287 110.702 36.8184 109.452 35.9492V30.793H112.763L113.217 33.8252C113.646 34.1963 114.247 34.499 115.019 34.7334C115.8 34.958 116.645 35.0703 117.553 35.0703C118.715 35.0703 119.604 34.8359 120.219 34.3672C120.834 33.8887 121.142 33.2441 121.142 32.4336C121.142 31.6719 120.849 31.0322 120.263 30.5146C119.687 29.9873 118.671 29.499 117.216 29.0498C114.687 28.3174 112.802 27.4482 111.562 26.4424C110.321 25.4365 109.701 24.0596 109.701 22.3115C109.701 21.1592 110.019 20.1436 110.653 19.2646C111.298 18.376 112.187 17.6777 113.319 17.1699C114.452 16.6621 115.761 16.3984 117.245 16.3789C118.886 16.3594 120.336 16.5547 121.596 16.9648C122.865 17.375 123.959 17.9463 124.877 18.6787V23.4834H121.669L121.112 20.5537C120.741 20.3193 120.238 20.1143 119.604 19.9385C118.979 19.7627 118.266 19.6748 117.465 19.6748C116.439 19.6748 115.6 19.9043 114.945 20.3633C114.291 20.8223 113.964 21.4668 113.964 22.2969C113.964 23.0098 114.267 23.6055 114.872 24.084C115.487 24.5527 116.615 25.0508 118.256 25.5781C120.609 26.2324 122.392 27.0967 123.603 28.1709C124.823 29.2451 125.434 30.6562 125.434 32.4043C125.434 33.625 125.106 34.6748 124.452 35.5537C123.798 36.4326 122.875 37.1113 121.684 37.5898C120.502 38.0684 119.125 38.3076 117.553 38.3076Z" fill="white"/>
</svg>
